# xmcd CD database file
#
# Track frame offsets:
#	150
#	9137
#	39362
#	50462
#	77612
#	102137
#	127337
#	139187
#	173012
#	190337
#	206312
#	224687
#
# Disc length: 3173 seconds
#
# Revision: 0
# Processed by: cddbd v1.5.2PL0 Copyright (c) Steve Scherf et al.
# Submitted via: CDex 1.51
#
DISCID=a00c630c
DTITLE=Guillermo Gregorio - Red Cube(d)
DYEAR=1999
DGENRE=Jazz
TTITLE0=Crimson Mountain
TTITLE1=Red Dust
TTITLE2=These Foolish Things
TTITLE3=1-2-3-4 Jump
TTITLE4=Slipped Fifths
TTITLE5=Woodchopper's Nightmare
TTITLE6=A Study In Scarlet
TTITLE7=Red Skies
TTITLE8=Cottontop
TTITLE9=Chu's Spectre (Ghost of a Chance)
TTITLE10=Lost Weekend
TTITLE11=Ana's Lullaby
EXTD=YEAR: 1999
EXTT0=
EXTT1=
EXTT2=
EXTT3=
EXTT4=
EXTT5=
EXTT6=
EXTT7=
EXTT8=
EXTT9=
EXTT10=
EXTT11=
PLAYORDER=
